<svg width="673" height="346" fill="none" xmlns="http://www.w3.org/2000/svg"><path d="M31.5 243.5V196l12 7L62 188h11.5l30 21.5 29-32L131 198v11.5l-4 13.5-3.5 2.5v18l-4 7.5v16.5l-8.5 8-7.5 5.5 3 15 2 23.5h-5l-11 2-2 14-9 10L66 331l-15 7.5-2-21-3.5-4-15.5-9 1.5-5.5v-12l3-4v-9.5l-10-15 7-15Z" fill="#fff"/><path d="m39 6.5-12.5 34 15.5 22h81l7-28.5-11.5-32.5-14.5 38L76.5 0l-14 45L39 6.5Z" fill="#0A4481"/><path d="M17.5 79.5V96c23.167 9.833 78.5 22 114.5-8 .336-.28.669-.56 1-.84V79.5H17.5ZM44.5 56.44 17.5 20v59.5H133V56.44L131 32l-2-10.5-7 29L104.5 20l-20 41L63 26 44.5 56.44Z" fill="#0091FF"/><path d="M61 148c0 16.845-13.655 30.5-30.5 30.5S0 164.845 0 148s13.655-30.5 30.5-30.5S61 131.155 61 148ZM125 152c0 16.845-13.655 30.5-30.5 30.5S64 168.845 64 152s13.655-30.5 30.5-30.5S125 135.155 125 152Z" fill="#544E4E"/><path d="m66.783 139.254-7.292-.754.449 17.5 4.56 1 2.283-17.746Z" fill="#544E4E"/><circle cx="27" cy="148.5" r="21" fill="#C9CFCF"/><circle cx="91" cy="152.5" r="21" fill="#C9CFCF"/><path d="M344.58 62.66h27.28l16.5 107.14 12.32-107.14h29.92L407.5 205h-34.98l-14.3-87.34-14.3 87.34h-34.98l-23.1-142.34h29.92l12.32 107.14 16.5-107.14ZM478.347 62.66V205h-30.8V62.66h30.8ZM580.238 100.06h-29.26V88.84c0-1.173-.44-2.2-1.32-3.08-.734-.88-1.687-1.32-2.86-1.32h-12.1c-1.174 0-2.2.44-3.08 1.32-.734.88-1.1 1.907-1.1 3.08v25.3c0 1.173.366 2.2 1.1 3.08.88.88 1.906 1.32 3.08 1.32h19.8c18.186.293 27.28 9.973 27.28 29.04v30.58c0 19.36-9.094 29.04-27.28 29.04h-25.96c-18.187 0-27.28-9.68-27.28-29.04v-14.74h29.26v15.84c0 1.173.366 2.2 1.1 3.08.88.88 1.906 1.32 3.08 1.32h13.64c1.173 0 2.126-.44 2.86-1.32.88-.88 1.32-1.907 1.32-3.08v-27.94c0-1.173-.44-2.2-1.32-3.08-.734-.88-1.687-1.32-2.86-1.32h-19.8c-18.187 0-27.28-9.68-27.28-29.04V89.5c0-19.36 9.093-29.04 27.28-29.04h24.42c18.186 0 27.28 9.68 27.28 29.04v10.56ZM632.82 179.48h34.1V205h-64.9V62.66h64.9v25.08h-34.1v33.44h31.9v24.2h-31.9v34.1Z" fill="#fff"/><path d="M345.289 281.57c0 4.562-.722 8.755-2.167 12.58-1.445 3.797-3.485 7.069-6.12 9.818-2.635 2.748-5.809 4.887-9.52 6.417-3.684 1.502-7.764 2.253-12.24 2.253-4.477 0-8.557-.751-12.24-2.253-3.684-1.53-6.843-3.669-9.478-6.417-2.635-2.749-4.675-6.021-6.12-9.818-1.445-3.825-2.167-8.018-2.167-12.58 0-4.562.722-8.741 2.167-12.537 1.445-3.825 3.485-7.112 6.12-9.86 2.635-2.777 5.794-4.93 9.478-6.46 3.683-1.53 7.763-2.295 12.24-2.295 4.476 0 8.556.765 12.24 2.295 3.711 1.53 6.885 3.683 9.52 6.46 2.635 2.748 4.675 6.035 6.12 9.86 1.445 3.796 2.167 7.975 2.167 12.537Zm-8.457 0c0-3.74-.51-7.097-1.53-10.072-1.02-2.975-2.465-5.483-4.335-7.523-1.87-2.068-4.137-3.655-6.8-4.76-2.664-1.105-5.639-1.657-8.925-1.657-3.259 0-6.219.552-8.883 1.657-2.663 1.105-4.944 2.692-6.842 4.76-1.87 2.04-3.315 4.548-4.335 7.523-1.02 2.975-1.53 6.332-1.53 10.072 0 3.74.51 7.098 1.53 10.073 1.02 2.946 2.465 5.454 4.335 7.522 1.898 2.04 4.179 3.613 6.842 4.718 2.664 1.076 5.624 1.615 8.883 1.615 3.286 0 6.261-.539 8.925-1.615 2.663-1.105 4.93-2.678 6.8-4.718 1.87-2.068 3.315-4.576 4.335-7.522 1.02-2.975 1.53-6.333 1.53-10.073ZM391.638 305.073V312h-34.552v-60.902h8.202v53.975h26.35ZM453.533 281.57c0 4.562-.723 8.713-2.168 12.453-1.445 3.74-3.485 6.941-6.12 9.605-2.635 2.663-5.808 4.731-9.52 6.205-3.683 1.445-7.763 2.167-12.24 2.167h-22.737v-60.902h22.737c4.477 0 8.557.736 12.24 2.21 3.712 1.445 6.885 3.513 9.52 6.205 2.635 2.663 4.675 5.865 6.12 9.605 1.445 3.74 2.168 7.89 2.168 12.452Zm-8.458 0c0-3.74-.51-7.083-1.53-10.03-1.02-2.947-2.465-5.44-4.335-7.48s-4.136-3.598-6.8-4.675c-2.663-1.077-5.638-1.615-8.925-1.615h-14.492v47.558h14.492c3.287 0 6.262-.539 8.925-1.615 2.664-1.077 4.93-2.621 6.8-4.633 1.87-2.04 3.315-4.533 4.335-7.48s1.53-6.29 1.53-10.03ZM550.526 251.098V312h-7.225v-44.752c0-.595.015-1.233.043-1.913.057-.68.113-1.374.17-2.082l-20.91 38.08c-.652 1.275-1.643 1.912-2.975 1.912h-1.19c-1.332 0-2.323-.637-2.975-1.912l-21.335-38.25c.17 1.501.255 2.89.255 4.165V312h-7.225v-60.902h6.077c.737 0 1.304.07 1.7.212.397.142.78.538 1.148 1.19l21.037 37.485c.34.68.666 1.388.978 2.125.34.737.652 1.488.935 2.253.283-.765.581-1.516.892-2.253.312-.765.652-1.487 1.02-2.167l20.655-37.443c.34-.652.709-1.048 1.105-1.19.425-.142 1.006-.212 1.743-.212h6.077ZM598.442 289.39l-9.563-24.777a50.296 50.296 0 0 1-.892-2.55 61.618 61.618 0 0 1-.893-3.145c-.595 2.295-1.204 4.207-1.827 5.737l-9.563 24.735h22.738Zm17.17 22.61h-6.375c-.737 0-1.332-.184-1.785-.552a3.39 3.39 0 0 1-1.02-1.403l-5.695-14.705h-27.328l-5.695 14.705c-.17.51-.496.963-.977 1.36-.482.397-1.077.595-1.785.595h-6.375l24.352-60.902h8.33L615.612 312ZM672.966 251.098V312h-4.122c-.652 0-1.204-.113-1.658-.34-.425-.227-.85-.609-1.275-1.147l-35.232-45.9c.056.708.099 1.402.127 2.082.029.68.043 1.318.043 1.913V312h-7.225v-60.902h4.25c.368 0 .68.028.935.085.255.028.481.099.68.212.198.085.396.227.595.425.198.17.411.397.637.68l35.233 45.858c-.057-.737-.114-1.445-.17-2.125a49 49 0 0 1-.043-1.998v-43.137h7.225Z" fill="#A6A6A6"/></svg>